<svg width="21" height="20" viewBox="0 0 21 20" fill="none" xmlns="http://www.w3.org/2000/svg">
<path d="M5.5 6.66699C5.5 5.34091 6.02678 4.06914 6.96447 3.13146C7.90215 2.19378 9.17392 1.66699 10.5 1.66699C11.8261 1.66699 13.0979 2.19378 14.0355 3.13146C14.9732 4.06914 15.5 5.34091 15.5 6.66699C15.5 12.5003 18 14.167 18 14.167H3C3 14.167 5.5 12.5003 5.5 6.66699Z" stroke="white" stroke-linecap="round" stroke-linejoin="round"/>
<path d="M9.0835 17.5C9.22298 17.7537 9.42804 17.9653 9.67724 18.1127C9.92644 18.26 10.2106 18.3378 10.5002 18.3378C10.7897 18.3378 11.0739 18.26 11.3231 18.1127C11.5723 17.9653 11.7773 17.7537 11.9168 17.5" stroke="white" stroke-linecap="round" stroke-linejoin="round"/>
</svg>
