<svg width="21" height="20" viewBox="0 0 21 20" fill="none" xmlns="http://www.w3.org/2000/svg">
<path d="M7.16683 18.3334C7.62707 18.3334 8.00016 17.9603 8.00016 17.5001C8.00016 17.0398 7.62707 16.6667 7.16683 16.6667C6.70659 16.6667 6.3335 17.0398 6.3335 17.5001C6.3335 17.9603 6.70659 18.3334 7.16683 18.3334Z" stroke="white" stroke-linecap="round" stroke-linejoin="round"/>
<path d="M16.3333 18.3334C16.7936 18.3334 17.1667 17.9603 17.1667 17.5001C17.1667 17.0398 16.7936 16.6667 16.3333 16.6667C15.8731 16.6667 15.5 17.0398 15.5 17.5001C15.5 17.9603 15.8731 18.3334 16.3333 18.3334Z" stroke="white" stroke-linecap="round" stroke-linejoin="round"/>
<path d="M2.2085 1.70825H3.87516L6.09183 12.0583C6.17314 12.4373 6.38405 12.7761 6.68826 13.0165C6.99246 13.2568 7.37092 13.3835 7.7585 13.3749H15.9085C16.2878 13.3743 16.6556 13.2443 16.951 13.0064C17.2465 12.7686 17.4519 12.437 17.5335 12.0666L18.9085 5.87492H4.76683" stroke="white" stroke-linecap="round" stroke-linejoin="round"/>
</svg>
