<svg width="20" height="20" viewBox="0 0 20 20" fill="none" xmlns="http://www.w3.org/2000/svg">
<g clip-path="url(#clip0_1042_6511)">
<path d="M10.0007 16.6667C13.6825 16.6667 16.6673 13.6819 16.6673 10C16.6673 6.31814 13.6825 3.33337 10.0007 3.33337C6.31875 3.33337 3.33398 6.31814 3.33398 10C3.33398 13.6819 6.31875 16.6667 10.0007 16.6667Z" stroke="white" stroke-linecap="round" stroke-linejoin="round"/>
<path d="M10 10.6666C11.1046 10.6666 12 9.7712 12 8.66663C12 7.56206 11.1046 6.66663 10 6.66663C8.89543 6.66663 8 7.56206 8 8.66663C8 9.7712 8.89543 10.6666 10 10.6666Z" stroke="white" stroke-linecap="round" stroke-linejoin="round"/>
<path d="M6.66602 15.7747V14.6667C6.66602 14.3131 6.80649 13.9739 7.05654 13.7239C7.30659 13.4739 7.64573 13.3334 7.99935 13.3334H11.9993C12.353 13.3334 12.6921 13.4739 12.9422 13.7239C13.1922 13.9739 13.3327 14.3131 13.3327 14.6667V15.7747" stroke="white" stroke-linecap="round" stroke-linejoin="round"/>
</g>
<defs>
<clipPath id="clip0_1042_6511">
<rect width="16" height="16" fill="white" transform="translate(2 2)"/>
</clipPath>
</defs>
</svg>
