<svg width="24" height="25" viewBox="0 0 24 25" fill="none" xmlns="http://www.w3.org/2000/svg">
<path d="M10 13.4443C10.4295 14.0184 10.9774 14.4935 11.6066 14.8372C12.2357 15.181 12.9315 15.3854 13.6467 15.4366C14.3618 15.4879 15.0796 15.3847 15.7513 15.1341C16.4231 14.8835 17.0331 14.4914 17.54 13.9843L20.54 10.9843C21.4508 10.0413 21.9548 8.77828 21.9434 7.4673C21.932 6.15631 21.4061 4.90225 20.4791 3.97521C19.5521 3.04817 18.298 2.52232 16.987 2.51093C15.676 2.49954 14.413 3.00351 13.47 3.9143L11.75 5.6243" stroke="white" stroke-linecap="round" stroke-linejoin="round"/>
<path d="M13.9982 11.4446C13.5688 10.8704 13.0209 10.3954 12.3917 10.0516C11.7625 9.70786 11.0667 9.50344 10.3516 9.45223C9.63645 9.40101 8.91866 9.50419 8.2469 9.75478C7.57514 10.0054 6.96513 10.3975 6.45825 10.9046L3.45825 13.9046C2.54746 14.8476 2.04348 16.1106 2.05488 17.4216C2.06627 18.7326 2.59211 19.9866 3.51915 20.9137C4.44619 21.8407 5.70026 22.3665 7.01124 22.3779C8.32222 22.3893 9.58524 21.8854 10.5282 20.9746L12.2382 19.2646" stroke="white" stroke-linecap="round" stroke-linejoin="round"/>
</svg>
