<svg width="22" height="21" viewBox="0 0 22 21" fill="none" xmlns="http://www.w3.org/2000/svg">
<path d="M5.5752 21H1.21582V6.98438H5.5752V21ZM3.37207 5.10938C2.0127 5.10938 0.887695 3.9375 0.887695 2.53125C0.887695 1.17188 2.0127 0.046875 3.37207 0.046875C4.77832 0.046875 5.90332 1.17188 5.90332 2.53125C5.90332 3.9375 4.77832 5.10938 3.37207 5.10938ZM21.8408 21H17.5283V14.2031C17.5283 12.5625 17.4814 10.5 15.2314 10.5C12.9814 10.5 12.6533 12.2344 12.6533 14.0625V21H8.29395V6.98438H12.4658V8.90625H12.5127C13.1221 7.82812 14.5283 6.65625 16.6377 6.65625C21.0439 6.65625 21.8877 9.5625 21.8877 13.3125V21H21.8408Z" fill="white"/>
</svg>
