<svg width="20" height="20" viewBox="0 0 20 20" fill="none" xmlns="http://www.w3.org/2000/svg">
<path d="M16.6673 10H12.6673L11.334 12H8.66732L7.33398 10H3.33398" stroke="#B95ED4" stroke-linecap="round" stroke-linejoin="round"/>
<path d="M5.63398 5.40669L3.33398 10V14C3.33398 14.3536 3.47446 14.6928 3.72451 14.9428C3.97456 15.1929 4.3137 15.3334 4.66732 15.3334H15.334C15.6876 15.3334 16.0267 15.1929 16.2768 14.9428C16.5268 14.6928 16.6673 14.3536 16.6673 14V10L14.3673 5.40669C14.2569 5.18455 14.0868 4.9976 13.876 4.86687C13.6651 4.73615 13.422 4.66682 13.174 4.66669H6.82732C6.57926 4.66682 6.33616 4.73615 6.12535 4.86687C5.91453 4.9976 5.74437 5.18455 5.63398 5.40669Z" stroke="#B95ED4" stroke-linecap="round" stroke-linejoin="round"/>
</svg>
