<svg width="26" height="26" viewBox="0 0 26 26" fill="none" xmlns="http://www.w3.org/2000/svg">
<path d="M13.0001 14.0837C13.5984 14.0837 14.0834 13.5986 14.0834 13.0003C14.0834 12.402 13.5984 11.917 13.0001 11.917C12.4018 11.917 11.9167 12.402 11.9167 13.0003C11.9167 13.5986 12.4018 14.0837 13.0001 14.0837Z" stroke="white" stroke-linecap="round" stroke-linejoin="round"/>
<path d="M13.0001 6.49967C13.5984 6.49967 14.0834 6.01465 14.0834 5.41634C14.0834 4.81803 13.5984 4.33301 13.0001 4.33301C12.4018 4.33301 11.9167 4.81803 11.9167 5.41634C11.9167 6.01465 12.4018 6.49967 13.0001 6.49967Z" stroke="white" stroke-linecap="round" stroke-linejoin="round"/>
<path d="M13.0001 21.6667C13.5984 21.6667 14.0834 21.1816 14.0834 20.5833C14.0834 19.985 13.5984 19.5 13.0001 19.5C12.4018 19.5 11.9167 19.985 11.9167 20.5833C11.9167 21.1816 12.4018 21.6667 13.0001 21.6667Z" stroke="white" stroke-linecap="round" stroke-linejoin="round"/>
</svg>
