<svg width="18" height="5" viewBox="0 0 18 5" fill="none" xmlns="http://www.w3.org/2000/svg">
<path d="M2.59163 4.39773C2.24788 4.39773 1.93396 4.31392 1.64987 4.14631C1.36578 3.97585 1.13851 3.74858 0.968054 3.46449C0.80044 3.1804 0.716633 2.86648 0.716633 2.52273C0.716633 2.17614 0.80044 1.86222 0.968054 1.58097C1.13851 1.29687 1.36578 1.07102 1.64987 0.903409C1.93396 0.732954 2.24788 0.647727 2.59163 0.647727C2.93822 0.647727 3.25214 0.732954 3.53339 0.903409C3.81749 1.07102 4.04334 1.29687 4.21095 1.58097C4.38141 1.86222 4.46663 2.17614 4.46663 2.52273C4.46663 2.86648 4.38141 3.1804 4.21095 3.46449C4.04334 3.74858 3.81749 3.97585 3.53339 4.14631C3.25214 4.31392 2.93822 4.39773 2.59163 4.39773ZM9.0032 4.39773C8.65945 4.39773 8.34553 4.31392 8.06143 4.14631C7.77734 3.97585 7.55007 3.74858 7.37962 3.46449C7.212 3.1804 7.1282 2.86648 7.1282 2.52273C7.1282 2.17614 7.212 1.86222 7.37962 1.58097C7.55007 1.29687 7.77734 1.07102 8.06143 0.903409C8.34553 0.732954 8.65945 0.647727 9.0032 0.647727C9.34979 0.647727 9.66371 0.732954 9.94496 0.903409C10.229 1.07102 10.4549 1.29687 10.6225 1.58097C10.793 1.86222 10.8782 2.17614 10.8782 2.52273C10.8782 2.86648 10.793 3.1804 10.6225 3.46449C10.4549 3.74858 10.229 3.97585 9.94496 4.14631C9.66371 4.31392 9.34979 4.39773 9.0032 4.39773ZM15.4148 4.39773C15.071 4.39773 14.7571 4.31392 14.473 4.14631C14.1889 3.97585 13.9616 3.74858 13.7912 3.46449C13.6236 3.1804 13.5398 2.86648 13.5398 2.52273C13.5398 2.17614 13.6236 1.86222 13.7912 1.58097C13.9616 1.29687 14.1889 1.07102 14.473 0.903409C14.7571 0.732954 15.071 0.647727 15.4148 0.647727C15.7613 0.647727 16.0753 0.732954 16.3565 0.903409C16.6406 1.07102 16.8665 1.29687 17.0341 1.58097C17.2045 1.86222 17.2898 2.17614 17.2898 2.52273C17.2898 2.86648 17.2045 3.1804 17.0341 3.46449C16.8665 3.74858 16.6406 3.97585 16.3565 4.14631C16.0753 4.31392 15.7613 4.39773 15.4148 4.39773Z" fill="#DFD1F3"/>
</svg>
