<svg width="25" height="26" viewBox="0 0 25 26" fill="none" xmlns="http://www.w3.org/2000/svg">
<path d="M10.6771 24.4582C10.3818 24.4582 10.1006 24.3332 9.90264 24.1134L0.99847 14.2197C0.696387 13.8837 0.530762 13.4504 0.530762 12.9994C0.530762 12.5483 0.696908 12.1155 0.998991 11.7796L9.90264 1.88633C10.2979 1.44674 11.0563 1.44674 11.4516 1.88633L20.3563 11.7801C20.9813 12.4749 20.9813 13.5244 20.3563 14.2191L11.4516 24.1134C11.2537 24.3332 10.9724 24.4582 10.6771 24.4582Z" fill="url(#paint0_linear_1127_117177)"/>
<path opacity="0.05" d="M20.8228 13C20.8228 13.4375 20.6665 13.875 20.354 14.2188L12.3228 23.151L12.1457 23.3438L8.99463 19.8438C8.45817 19.2448 8.45817 18.349 8.99463 17.75L12.8332 13.4844C13.0832 13.2083 13.0832 12.7917 12.8332 12.5156L8.99463 8.25C8.45817 7.65104 8.45817 6.75521 8.99463 6.15625L12.1457 2.65625L12.3228 2.84896L20.354 11.7812C20.6665 12.125 20.8228 12.5625 20.8228 13Z" fill="black"/>
<path opacity="0.05" d="M20.8229 12.9997C20.8229 13.4372 20.6667 13.8747 20.3542 14.2184L12.3229 23.1507L9.1875 19.6663C8.73958 19.1716 8.73958 18.4215 9.1875 17.9268L13.026 13.6611C13.3646 13.2809 13.3646 12.7184 13.026 12.3382L9.1875 8.07259C8.73958 7.5778 8.73958 6.8278 9.1875 6.33301L12.3229 2.84863L20.3542 11.7809C20.6667 12.1247 20.8229 12.5622 20.8229 12.9997Z" fill="black"/>
<path d="M14.3135 24.4587C14.0182 24.4587 13.7369 24.3337 13.539 24.1139L9.38066 19.4936C9.02389 19.0972 9.02441 18.4962 9.38066 18.0998L13.2197 13.8347C13.6479 13.3592 13.6479 12.642 13.2197 12.1665L9.38066 7.90137C9.02441 7.50501 9.02389 6.90397 9.38066 6.50762L13.539 1.8873C13.9343 1.44772 14.6926 1.44772 15.088 1.8873L23.9926 11.7811C24.6176 12.4758 24.6176 13.5248 23.9932 14.2201L15.0874 24.1139C14.89 24.3337 14.6088 24.4587 14.3135 24.4587Z" fill="url(#paint1_linear_1127_117177)"/>
<path d="M19.7872 18.3767C19.4919 18.3767 19.2106 18.2517 19.0133 18.0319L15.582 14.2199C15.2794 13.8835 15.1132 13.4496 15.1138 12.998C15.1138 12.5475 15.2804 12.1152 15.582 11.7798L19.0127 7.96836C19.4075 7.52878 20.1664 7.52878 20.5612 7.96836L23.9924 11.7803C24.6174 12.4762 24.6174 13.5241 23.9929 14.2194L20.5612 18.0319C20.3643 18.2517 20.0825 18.3767 19.7872 18.3767Z" fill="url(#paint2_linear_1127_117177)"/>
<defs>
<linearGradient id="paint0_linear_1127_117177" x1="8.71774" y1="1.88477" x2="12.6396" y2="24.128" gradientUnits="userSpaceOnUse">
<stop offset="0.003" stop-color="#A33094"/>
<stop offset="0.998" stop-color="#6D246B"/>
</linearGradient>
<linearGradient id="paint1_linear_1127_117177" x1="14.263" y1="1.54876" x2="18.1854" y2="23.792" gradientUnits="userSpaceOnUse">
<stop stop-color="#E288C5"/>
<stop offset="0.998" stop-color="#D76DBB"/>
</linearGradient>
<linearGradient id="paint2_linear_1127_117177" x1="18.8679" y1="7.78346" x2="20.7096" y2="18.2303" gradientUnits="userSpaceOnUse">
<stop offset="0.006" stop-color="#E9A0CB"/>
<stop offset="0.998" stop-color="#E48DC7"/>
</linearGradient>
</defs>
</svg>
