<svg width="21" height="20" viewBox="0 0 21 20" fill="none" xmlns="http://www.w3.org/2000/svg">
<path d="M4.24992 13.7498C2.99992 14.7998 2.58325 17.9164 2.58325 17.9164C2.58325 17.9164 5.69992 17.4998 6.74992 16.2498C7.34159 15.5498 7.33325 14.4748 6.67492 13.8248C6.35101 13.5156 5.92433 13.337 5.47677 13.3231C5.02922 13.3093 4.59232 13.4612 4.24992 13.7498Z" stroke="white" stroke-linecap="round" stroke-linejoin="round"/>
<path d="M10.5 12.5L8 10C8.44345 8.84957 9.00184 7.74676 9.66667 6.70838C10.6377 5.15587 11.9897 3.87758 13.5942 2.99512C15.1986 2.11266 17.0022 1.65535 18.8333 1.66671C18.8333 3.93338 18.1833 7.91671 13.8333 10.8334C12.7807 11.499 11.664 12.0573 10.5 12.5Z" stroke="white" stroke-linecap="round" stroke-linejoin="round"/>
<path d="M7.99992 9.99993H3.83325C3.83325 9.99993 4.29159 7.47493 5.49992 6.6666C6.84992 5.7666 9.66659 6.6666 9.66659 6.6666" stroke="white" stroke-linecap="round" stroke-linejoin="round"/>
<path d="M10.5 12.5002V16.6668C10.5 16.6668 13.025 16.2085 13.8333 15.0002C14.7333 13.6502 13.8333 10.8335 13.8333 10.8335" stroke="white" stroke-linecap="round" stroke-linejoin="round"/>
</svg>
