<svg width="20" height="20" viewBox="0 0 20 20" fill="none" xmlns="http://www.w3.org/2000/svg">
<path d="M3.3335 16.6667V8.33333C3.3335 7.44928 3.68469 6.60143 4.30981 5.97631C4.93493 5.35119 5.78277 5 6.66683 5H13.3335C14.2176 5 15.0654 5.35119 15.6905 5.97631C16.3156 6.60143 16.6668 7.44928 16.6668 8.33333V16.6667C16.6668 17.1087 16.4912 17.5326 16.1787 17.8452C15.8661 18.1577 15.4422 18.3333 15.0002 18.3333H5.00016C4.55814 18.3333 4.13421 18.1577 3.82165 17.8452C3.50909 17.5326 3.3335 17.1087 3.3335 16.6667Z" stroke="#702486" stroke-linecap="round" stroke-linejoin="round"/>
<path d="M7.5 5.00008V3.33341C7.5 2.89139 7.6756 2.46746 7.98816 2.1549C8.30072 1.84234 8.72464 1.66675 9.16667 1.66675H10.8333C11.2754 1.66675 11.6993 1.84234 12.0118 2.1549C12.3244 2.46746 12.5 2.89139 12.5 3.33341V5.00008" stroke="#702486" stroke-linecap="round" stroke-linejoin="round"/>
<path d="M6.6665 17.5001V13.3334C6.6665 12.8914 6.8421 12.4675 7.15466 12.1549C7.46722 11.8423 7.89114 11.6667 8.33317 11.6667H11.6665C12.1085 11.6667 12.5325 11.8423 12.845 12.1549C13.1576 12.4675 13.3332 12.8914 13.3332 13.3334V17.5001" stroke="#702486" stroke-linecap="round" stroke-linejoin="round"/>
<path d="M6.6665 8.33325H13.3332" stroke="#702486" stroke-linecap="round" stroke-linejoin="round"/>
<path d="M6.6665 15H13.3332" stroke="#702486" stroke-linecap="round" stroke-linejoin="round"/>
</svg>
