<svg width="82" height="31" viewBox="0 0 82 31" fill="none" xmlns="http://www.w3.org/2000/svg">
<path fill-rule="evenodd" clip-rule="evenodd" d="M44.2825 4.47623L38.6777 5.56641V1.44793L44.2825 0.37793V4.47623ZM21.5059 2.71973L16.0575 3.76954L16.0352 19.9407C16.0352 22.9286 18.5137 25.1292 21.8185 25.1292C23.6495 25.1292 24.9893 24.8263 25.7262 24.4629V20.3646C25.0116 20.6271 21.4836 21.5558 21.4836 18.5678V11.4009H25.7262V7.10067H21.4836L21.5059 2.71973ZM8.30908 11.1378C7.12562 11.1378 6.41108 11.4406 6.41108 12.228C6.41108 13.0876 7.64082 13.4658 9.16644 13.935C11.6536 14.6998 14.9271 15.7064 14.9409 19.4353C14.9409 23.0491 11.7478 25.1285 7.10329 25.1285C5.18295 25.1285 3.08398 24.7853 1.00734 23.9778V19.1729C2.88302 20.1016 5.24994 20.788 7.10329 20.788C8.35374 20.788 9.24692 20.4851 9.24692 19.5565C9.24692 18.6042 7.91386 18.169 6.30449 17.6435C3.85353 16.8432 0.761719 15.8337 0.761719 12.4702C0.761719 8.89684 3.7762 6.75684 8.30908 6.75684C10.1624 6.75684 11.9934 7.01929 13.8468 7.68552V12.4299C12.1498 11.6021 10.0061 11.1378 8.30908 11.1378ZM32.6707 8.59424L32.3134 7.10028H27.4902V24.7654H33.0726V12.7935C34.39 11.239 36.623 11.5216 37.3152 11.7437V7.10028C36.6006 6.85802 33.9881 6.41387 32.6707 8.59424ZM38.6758 7.10059H44.2805V24.7657H38.6758V7.10059ZM81.1474 16.0032C81.1474 10.8349 78.3785 6.75684 73.0865 6.75684C67.7721 6.75684 64.5566 10.8349 64.5566 15.9629C64.5566 22.0397 68.3526 25.1083 73.801 25.1083C76.4582 25.1083 78.4678 24.5632 79.9863 23.7961V19.7583C78.4678 20.4448 76.7262 20.8687 74.5155 20.8687C72.3496 20.8687 70.4293 20.1823 70.1836 17.8H81.1027C81.1027 17.6888 81.1107 17.436 81.12 17.1447C81.1326 16.749 81.1474 16.2824 81.1474 16.0032ZM70.1172 14.0847C70.1172 11.8034 71.6579 10.8545 73.0647 10.8545C74.4268 10.8545 75.8782 11.8034 75.8782 14.0847H70.1172ZM51.5602 8.33155C52.3417 7.68552 53.7485 6.75684 55.9367 6.75684C59.8444 6.75684 63.5288 9.94665 63.5511 15.8014C63.5511 22.2012 59.9114 25.1084 55.9144 25.1084C53.9494 25.1084 52.766 24.3614 51.9621 23.8365L51.9398 29.5499L46.3574 30.6199V7.07985H51.2699L51.5602 8.33155ZM51.9618 19.7165C52.4977 20.2414 53.2792 20.6654 54.5967 20.6654C56.651 20.6654 58.0354 18.6465 58.0354 15.9413C58.0354 13.2965 56.6286 11.2373 54.5967 11.2373C53.3239 11.2373 52.52 11.6411 51.9395 12.2265L51.9618 19.7165Z" fill="#6461FC"/>
</svg>
